<svg xmlns="http://www.w3.org/2000/svg" xmlns:xlink="http://www.w3.org/1999/xlink" width="460" zoomAndPan="magnify" viewBox="0 0 345 89.999999" height="120" preserveAspectRatio="xMidYMid meet" version="1.0"><defs><g></g><clipPath id="aeb61d7b67"><path d="M 275 18.582031 L 292 18.582031 L 292 47 L 275 47 Z M 275 18.582031 " clip-rule="nonzero"></path></clipPath><clipPath id="83a42414f0"><path d="M 288 30 L 316.632812 30 L 316.632812 47 L 288 47 Z M 288 30 " clip-rule="nonzero"></path></clipPath><clipPath id="58d10cd956"><path d="M 263.789062 43 L 292 43 L 292 60 L 263.789062 60 Z M 263.789062 43 " clip-rule="nonzero"></path></clipPath><clipPath id="f4f8515a1c"><path d="M 288 43 L 305 43 L 305 71.429688 L 288 71.429688 Z M 288 43 " clip-rule="nonzero"></path></clipPath><clipPath id="188d670bb3"><rect x="0" width="39" y="0" height="90"></rect></clipPath><clipPath id="d0df1ee5b2"><rect x="0" width="41" y="0" height="90"></rect></clipPath><clipPath id="9abd96b9d2"><path d="M 0.160156 0 L 47 0 L 47 90 L 0.160156 90 Z M 0.160156 0 " clip-rule="nonzero"></path></clipPath><clipPath id="c3f5ba5796"><rect x="0" width="47" y="0" height="90"></rect></clipPath><clipPath id="72243fe71d"><path d="M 0.441406 6 L 9 6 L 9 14 L 0.441406 14 Z M 0.441406 6 " clip-rule="nonzero"></path></clipPath><clipPath id="40409ab058"><path d="M 129 6 L 137.960938 6 L 137.960938 14 L 129 14 Z M 129 6 " clip-rule="nonzero"></path></clipPath><clipPath id="c467b76188"><rect x="0" width="138" y="0" height="18"></rect></clipPath><clipPath id="cb739cb08e"><rect x="0" width="36" y="0" height="90"></rect></clipPath><clipPath id="95be8f71cc"><rect x="0" width="38" y="0" height="87"></rect></clipPath><clipPath id="032640fbbb"><rect x="0" width="29" y="0" height="80"></rect></clipPath><clipPath id="90e461f81d"><rect x="0" width="31" y="0" height="87"></rect></clipPath><clipPath id="67752684b4"><rect x="0" width="38" y="0" height="89"></rect></clipPath><clipPath id="14d3720ec5"><rect x="0" width="318" y="0" height="90"></rect></clipPath></defs><g transform="matrix(1, 0, 0, 1, 14, -0.00000000000000949)"><g clip-path="url(#14d3720ec5)"><g clip-path="url(#aeb61d7b67)"><path fill="#cd7f5f" d="M 290.101562 18.460938 C 282.289062 18.460938 275.960938 24.792969 275.960938 32.601562 C 275.960938 40.410156 282.289062 46.742188 290.101562 46.742188 C 291.117188 46.742188 291.945312 45.914062 291.945312 44.898438 L 291.945312 20.304688 C 291.945312 19.285156 291.117188 18.460938 290.101562 18.460938 Z M 290.101562 18.460938 " fill-opacity="1" fill-rule="nonzero"></path></g><g clip-path="url(#83a42414f0)"><path fill="#ffd230" d="M 302.394531 30.757812 C 294.585938 30.757812 288.253906 37.085938 288.253906 44.898438 C 288.253906 45.914062 289.082031 46.742188 290.101562 46.742188 L 314.691406 46.742188 C 315.710938 46.742188 316.535156 45.914062 316.535156 44.898438 C 316.535156 37.085938 310.207031 30.757812 302.394531 30.757812 Z M 302.394531 30.757812 " fill-opacity="1" fill-rule="nonzero"></path></g><g clip-path="url(#58d10cd956)"><path fill="#88a9bc" d="M 277.804688 59.035156 C 269.996094 59.035156 263.664062 52.707031 263.664062 44.898438 C 263.664062 43.878906 264.488281 43.050781 265.507812 43.050781 L 290.101562 43.050781 C 291.117188 43.050781 291.945312 43.878906 291.945312 44.898438 C 291.945312 52.707031 285.613281 59.035156 277.804688 59.035156 Z M 277.804688 59.035156 " fill-opacity="1" fill-rule="nonzero"></path></g><g clip-path="url(#f4f8515a1c)"><path fill="#95c8c3" d="M 290.101562 43.050781 C 297.910156 43.050781 304.242188 49.382812 304.242188 57.191406 C 304.242188 65 297.910156 71.332031 290.101562 71.332031 C 289.082031 71.332031 288.253906 70.507812 288.253906 69.488281 L 288.253906 44.898438 C 288.253906 43.878906 289.082031 43.050781 290.101562 43.050781 Z M 290.101562 43.050781 " fill-opacity="1" fill-rule="nonzero"></path></g><g transform="matrix(1, 0, 0, 1, 175, -0.00000000000000949)"><g clip-path="url(#188d670bb3)"><g fill="#ffd230" fill-opacity="1"><g transform="translate(3.047948, 69.963659)"><g><path d="M 27 -15.03125 C 29.84375 -14.414062 30.953125 -12.878906 30.328125 -10.421875 C 29.765625 -8.078125 28.425781 -5.882812 26.3125 -3.84375 C 24.195312 -1.8125 21.109375 -0.742188 17.046875 -0.640625 C 12.085938 -0.503906 8.414062 -2.757812 6.03125 -7.40625 C 3.644531 -12.0625 2.34375 -18.554688 2.125 -26.890625 C 1.976562 -32.097656 2.515625 -36.660156 3.734375 -40.578125 C 4.953125 -44.503906 6.675781 -47.566406 8.90625 -49.765625 C 11.144531 -51.960938 13.707031 -53.097656 16.59375 -53.171875 C 20.84375 -53.285156 24.160156 -51.550781 26.546875 -47.96875 C 28.929688 -44.394531 30.234375 -38.5625 30.453125 -30.46875 C 30.503906 -28.519531 30.125 -26.890625 29.3125 -25.578125 C 28.5 -24.273438 26.910156 -23.34375 24.546875 -22.78125 C 23.660156 -22.632812 22.46875 -22.507812 20.96875 -22.40625 C 19.46875 -22.3125 17.867188 -22.269531 16.171875 -22.28125 C 14.484375 -22.300781 12.878906 -22.382812 11.359375 -22.53125 C 11.785156 -18.332031 12.566406 -14.910156 13.703125 -12.265625 C 14.847656 -9.628906 16.082031 -8.332031 17.40625 -8.375 C 18.71875 -8.40625 19.753906 -8.929688 20.515625 -9.953125 C 21.273438 -10.984375 21.734375 -11.910156 21.890625 -12.734375 C 22.171875 -13.867188 22.789062 -14.601562 23.75 -14.9375 C 24.71875 -15.28125 25.800781 -15.3125 27 -15.03125 Z M 16.328125 -45.546875 C 14.941406 -45.503906 13.71875 -44.023438 12.65625 -41.109375 C 11.601562 -38.191406 11.046875 -34.441406 10.984375 -29.859375 C 12.304688 -29.828125 13.84375 -29.816406 15.59375 -29.828125 C 17.351562 -29.847656 18.734375 -29.90625 19.734375 -30 C 20.242188 -30.070312 20.695312 -30.222656 21.09375 -30.453125 C 21.488281 -30.679688 21.765625 -31.238281 21.921875 -32.125 C 22.085938 -33.007812 22.050781 -34.453125 21.8125 -36.453125 C 21.5 -38.890625 20.910156 -41.023438 20.046875 -42.859375 C 19.191406 -44.691406 17.953125 -45.585938 16.328125 -45.546875 Z M 16.328125 -45.546875 "></path></g></g></g></g></g><g transform="matrix(1, 0, 0, 1, 136, -0.00000000000000949)"><g clip-path="url(#d0df1ee5b2)"><g fill="#88a9bc" fill-opacity="1"><g transform="translate(0.211254, 86.480499)"><g><path d="M 19.90625 0.21875 C 16.625 0.21875 14.203125 -0.171875 12.640625 -0.953125 C 11.078125 -1.734375 10.21875 -2.832031 10.0625 -4.25 C 9.988281 -5.445312 9.820312 -6.957031 9.5625 -8.78125 C 9.300781 -10.601562 9.097656 -12 8.953125 -12.96875 C 8.648438 -14.757812 8.238281 -17.332031 7.71875 -20.6875 C 7.195312 -24.039062 6.597656 -27.691406 5.921875 -31.640625 C 5.253906 -35.597656 4.617188 -39.457031 4.015625 -43.21875 C 3.421875 -46.988281 2.878906 -50.175781 2.390625 -52.78125 C 1.910156 -55.394531 1.5625 -56.960938 1.34375 -57.484375 C 1.269531 -57.859375 1.210938 -58.175781 1.171875 -58.4375 C 1.140625 -58.695312 1.125 -58.976562 1.125 -59.28125 C 1.125 -60.320312 1.585938 -61.160156 2.515625 -61.796875 C 3.453125 -62.429688 4.664062 -62.75 6.15625 -62.75 C 8.3125 -62.75 9.894531 -62.46875 10.90625 -61.90625 C 11.914062 -61.34375 12.640625 -60.316406 13.078125 -58.828125 C 13.304688 -57.859375 13.585938 -56.125 13.921875 -53.625 C 14.253906 -51.125 14.609375 -48.5 14.984375 -45.75 C 16.398438 -35.457031 17.476562 -28.054688 18.21875 -23.546875 C 18.96875 -19.035156 19.53125 -16.78125 19.90625 -16.78125 C 20.050781 -16.78125 20.21875 -17.09375 20.40625 -17.71875 C 20.59375 -18.351562 20.851562 -19.640625 21.1875 -21.578125 C 21.53125 -23.523438 21.976562 -26.414062 22.53125 -30.25 C 23.09375 -34.09375 23.859375 -39.179688 24.828125 -45.515625 C 25.203125 -48.054688 25.535156 -50.648438 25.828125 -53.296875 C 26.128906 -55.941406 26.429688 -57.859375 26.734375 -59.046875 C 27.253906 -60.390625 28.015625 -61.34375 29.015625 -61.90625 C 30.023438 -62.46875 31.578125 -62.75 33.671875 -62.75 C 35.160156 -62.75 36.351562 -62.429688 37.25 -61.796875 C 38.144531 -61.160156 38.59375 -60.320312 38.59375 -59.28125 C 38.59375 -58.457031 38.515625 -57.820312 38.359375 -57.375 C 38.140625 -56.851562 37.804688 -55.285156 37.359375 -52.671875 C 36.910156 -50.066406 36.367188 -46.898438 35.734375 -43.171875 C 35.097656 -39.441406 34.484375 -35.597656 33.890625 -31.640625 C 33.296875 -27.691406 32.71875 -24.039062 32.15625 -20.6875 C 31.59375 -17.332031 31.164062 -14.757812 30.875 -12.96875 C 30.71875 -12 30.507812 -10.601562 30.25 -8.78125 C 29.988281 -6.957031 29.785156 -5.445312 29.640625 -4.25 C 29.492188 -2.832031 28.65625 -1.734375 27.125 -0.953125 C 25.59375 -0.171875 23.1875 0.21875 19.90625 0.21875 Z M 19.90625 0.21875 "></path></g></g></g></g></g><g clip-path="url(#9abd96b9d2)"><g transform="matrix(1, 0, 0, 1, 0, -0.00000000000000949)"><g clip-path="url(#c3f5ba5796)"><g fill="#88a9bc" fill-opacity="1"><g transform="translate(0.338664, 80.610372)"><g><path d="M 22.671875 0.78125 C 16.609375 0.78125 11.875 -2.828125 8.46875 -10.046875 C 5.0625 -17.265625 3.359375 -27.304688 3.359375 -40.171875 C 3.359375 -48.179688 4.21875 -55.160156 5.9375 -61.109375 C 7.664062 -67.054688 10.097656 -71.691406 13.234375 -75.015625 C 16.378906 -78.347656 20.007812 -80.015625 24.125 -80.015625 C 27.71875 -80.015625 30.84375 -78.851562 33.5 -76.53125 C 36.15625 -74.207031 38.226562 -70.929688 39.71875 -66.703125 C 41.21875 -62.484375 41.96875 -57.566406 41.96875 -51.953125 C 41.96875 -48.515625 40.0625 -46.796875 36.25 -46.796875 C 34.375 -46.796875 33.039062 -47.222656 32.25 -48.078125 C 31.46875 -48.941406 30.96875 -49.972656 30.75 -51.171875 C 30.75 -56.703125 30.164062 -61.1875 29 -64.625 C 27.84375 -68.070312 26.289062 -69.796875 24.34375 -69.796875 C 22.332031 -69.796875 20.554688 -68.597656 19.015625 -66.203125 C 17.484375 -63.816406 16.304688 -60.472656 15.484375 -56.171875 C 14.660156 -51.867188 14.25 -46.875 14.25 -41.1875 C 14.25 -34.90625 14.601562 -29.367188 15.3125 -24.578125 C 16.03125 -19.785156 17.023438 -16.0625 18.296875 -13.40625 C 19.566406 -10.75 21.023438 -9.421875 22.671875 -9.421875 C 24.910156 -9.421875 26.722656 -10.785156 28.109375 -13.515625 C 29.492188 -16.253906 30.1875 -19.789062 30.1875 -24.125 C 30.1875 -26.289062 30.742188 -27.578125 31.859375 -27.984375 C 32.984375 -28.398438 34.257812 -28.609375 35.6875 -28.609375 C 37.707031 -28.609375 39.070312 -28.125 39.78125 -27.15625 C 40.488281 -26.1875 40.84375 -25.289062 40.84375 -24.46875 C 40.84375 -16.457031 39.210938 -10.242188 35.953125 -5.828125 C 32.703125 -1.421875 28.273438 0.78125 22.671875 0.78125 Z M 22.671875 0.78125 "></path></g></g></g></g></g></g><g transform="matrix(1, 0, 0, 1, 179, 71)"><g clip-path="url(#c467b76188)"><g clip-path="url(#72243fe71d)"><g fill="#88a9bc" fill-opacity="1"><g transform="translate(0.532775, 13.751808)"><g><path d="M 4.40625 0.140625 C 3.789062 0.140625 3.238281 0.0351562 2.75 -0.171875 C 2.257812 -0.378906 1.835938 -0.660156 1.484375 -1.015625 C 1.140625 -1.378906 0.875 -1.796875 0.6875 -2.265625 C 0.5 -2.734375 0.40625 -3.226562 0.40625 -3.75 C 0.40625 -4.476562 0.566406 -5.140625 0.890625 -5.734375 C 1.210938 -6.335938 1.675781 -6.816406 2.28125 -7.171875 C 2.882812 -7.535156 3.597656 -7.71875 4.421875 -7.71875 C 5.242188 -7.71875 5.953125 -7.535156 6.546875 -7.171875 C 7.140625 -6.816406 7.59375 -6.34375 7.90625 -5.75 C 8.21875 -5.15625 8.375 -4.515625 8.375 -3.828125 C 8.375 -3.710938 8.367188 -3.59375 8.359375 -3.46875 C 8.347656 -3.34375 8.335938 -3.242188 8.328125 -3.171875 L 2.46875 -3.171875 C 2.5 -2.785156 2.609375 -2.445312 2.796875 -2.15625 C 2.984375 -1.863281 3.222656 -1.644531 3.515625 -1.5 C 3.816406 -1.351562 4.132812 -1.28125 4.46875 -1.28125 C 4.863281 -1.28125 5.226562 -1.375 5.5625 -1.5625 C 5.90625 -1.75 6.140625 -1.992188 6.265625 -2.296875 L 7.9375 -1.84375 C 7.75 -1.457031 7.484375 -1.113281 7.140625 -0.8125 C 6.804688 -0.507812 6.40625 -0.273438 5.9375 -0.109375 C 5.476562 0.0546875 4.96875 0.140625 4.40625 0.140625 Z M 2.421875 -4.40625 L 6.390625 -4.40625 C 6.347656 -4.789062 6.238281 -5.125 6.0625 -5.40625 C 5.882812 -5.695312 5.648438 -5.921875 5.359375 -6.078125 C 5.066406 -6.234375 4.742188 -6.3125 4.390625 -6.3125 C 4.046875 -6.3125 3.726562 -6.234375 3.4375 -6.078125 C 3.15625 -5.921875 2.925781 -5.695312 2.75 -5.40625 C 2.570312 -5.125 2.460938 -4.789062 2.421875 -4.40625 Z M 2.421875 -4.40625 "></path></g></g></g></g><g fill="#88a9bc" fill-opacity="1"><g transform="translate(9.2117, 13.751808)"><g><path d="M 3.671875 0.140625 C 3.023438 0.140625 2.40625 0.0351562 1.8125 -0.171875 C 1.226562 -0.390625 0.722656 -0.703125 0.296875 -1.109375 L 1 -2.375 C 1.457031 -2.007812 1.90625 -1.738281 2.34375 -1.5625 C 2.78125 -1.382812 3.203125 -1.296875 3.609375 -1.296875 C 3.984375 -1.296875 4.285156 -1.363281 4.515625 -1.5 C 4.742188 -1.632812 4.859375 -1.835938 4.859375 -2.109375 C 4.859375 -2.296875 4.789062 -2.4375 4.65625 -2.53125 C 4.53125 -2.632812 4.347656 -2.722656 4.109375 -2.796875 C 3.878906 -2.878906 3.597656 -2.972656 3.265625 -3.078125 C 2.703125 -3.253906 2.234375 -3.429688 1.859375 -3.609375 C 1.484375 -3.785156 1.195312 -4.003906 1 -4.265625 C 0.8125 -4.523438 0.71875 -4.863281 0.71875 -5.28125 C 0.71875 -5.789062 0.84375 -6.222656 1.09375 -6.578125 C 1.351562 -6.941406 1.710938 -7.222656 2.171875 -7.421875 C 2.640625 -7.628906 3.179688 -7.734375 3.796875 -7.734375 C 4.335938 -7.734375 4.847656 -7.648438 5.328125 -7.484375 C 5.804688 -7.316406 6.242188 -7.039062 6.640625 -6.65625 L 5.859375 -5.4375 C 5.472656 -5.726562 5.109375 -5.941406 4.765625 -6.078125 C 4.421875 -6.222656 4.066406 -6.296875 3.703125 -6.296875 C 3.503906 -6.296875 3.316406 -6.269531 3.140625 -6.21875 C 2.960938 -6.175781 2.816406 -6.097656 2.703125 -5.984375 C 2.585938 -5.878906 2.53125 -5.722656 2.53125 -5.515625 C 2.53125 -5.335938 2.582031 -5.195312 2.6875 -5.09375 C 2.789062 -4.988281 2.945312 -4.894531 3.15625 -4.8125 C 3.363281 -4.738281 3.613281 -4.65625 3.90625 -4.5625 C 4.519531 -4.382812 5.035156 -4.203125 5.453125 -4.015625 C 5.867188 -3.835938 6.179688 -3.613281 6.390625 -3.34375 C 6.609375 -3.082031 6.71875 -2.722656 6.71875 -2.265625 C 6.71875 -1.503906 6.441406 -0.910156 5.890625 -0.484375 C 5.335938 -0.0664062 4.597656 0.140625 3.671875 0.140625 Z M 3.671875 0.140625 "></path></g></g></g><g fill="#88a9bc" fill-opacity="1"><g transform="translate(16.369276, 13.751808)"><g><path d="M 5.4375 0.140625 C 4.84375 0.140625 4.320312 0.0078125 3.875 -0.25 C 3.425781 -0.519531 3.078125 -0.878906 2.828125 -1.328125 L 2.828125 3.078125 L 0.890625 3.078125 L 0.890625 -7.59375 L 2.578125 -7.59375 L 2.578125 -6.28125 C 2.867188 -6.726562 3.234375 -7.078125 3.671875 -7.328125 C 4.117188 -7.585938 4.628906 -7.71875 5.203125 -7.71875 C 5.710938 -7.71875 6.179688 -7.613281 6.609375 -7.40625 C 7.035156 -7.207031 7.410156 -6.925781 7.734375 -6.5625 C 8.054688 -6.207031 8.304688 -5.796875 8.484375 -5.328125 C 8.660156 -4.859375 8.75 -4.351562 8.75 -3.8125 C 8.75 -3.070312 8.601562 -2.398438 8.3125 -1.796875 C 8.03125 -1.203125 7.640625 -0.726562 7.140625 -0.375 C 6.648438 -0.03125 6.082031 0.140625 5.4375 0.140625 Z M 4.78125 -1.5 C 5.082031 -1.5 5.351562 -1.5625 5.59375 -1.6875 C 5.832031 -1.820312 6.039062 -1.992188 6.21875 -2.203125 C 6.394531 -2.421875 6.53125 -2.664062 6.625 -2.9375 C 6.71875 -3.21875 6.765625 -3.507812 6.765625 -3.8125 C 6.765625 -4.125 6.710938 -4.414062 6.609375 -4.6875 C 6.503906 -4.957031 6.351562 -5.195312 6.15625 -5.40625 C 5.96875 -5.613281 5.742188 -5.773438 5.484375 -5.890625 C 5.234375 -6.003906 4.957031 -6.0625 4.65625 -6.0625 C 4.476562 -6.0625 4.296875 -6.03125 4.109375 -5.96875 C 3.921875 -5.90625 3.738281 -5.816406 3.5625 -5.703125 C 3.382812 -5.585938 3.226562 -5.453125 3.09375 -5.296875 C 2.96875 -5.140625 2.878906 -4.972656 2.828125 -4.796875 L 2.828125 -3.015625 C 2.941406 -2.734375 3.097656 -2.472656 3.296875 -2.234375 C 3.492188 -2.003906 3.722656 -1.820312 3.984375 -1.6875 C 4.242188 -1.5625 4.507812 -1.5 4.78125 -1.5 Z M 4.78125 -1.5 "></path></g></g></g><g fill="#88a9bc" fill-opacity="1"><g transform="translate(25.555319, 13.751808)"><g><path d="M 0.359375 -2.25 C 0.359375 -2.738281 0.492188 -3.164062 0.765625 -3.53125 C 1.046875 -3.90625 1.429688 -4.191406 1.921875 -4.390625 C 2.421875 -4.597656 2.988281 -4.703125 3.625 -4.703125 C 3.9375 -4.703125 4.253906 -4.675781 4.578125 -4.625 C 4.910156 -4.582031 5.203125 -4.507812 5.453125 -4.40625 L 5.453125 -4.8125 C 5.453125 -5.289062 5.304688 -5.660156 5.015625 -5.921875 C 4.734375 -6.179688 4.3125 -6.3125 3.75 -6.3125 C 3.332031 -6.3125 2.9375 -6.238281 2.5625 -6.09375 C 2.1875 -5.945312 1.789062 -5.734375 1.375 -5.453125 L 0.75 -6.734375 C 1.25 -7.066406 1.757812 -7.3125 2.28125 -7.46875 C 2.8125 -7.632812 3.367188 -7.71875 3.953125 -7.71875 C 5.035156 -7.71875 5.878906 -7.445312 6.484375 -6.90625 C 7.085938 -6.363281 7.390625 -5.59375 7.390625 -4.59375 L 7.390625 -2.171875 C 7.390625 -1.972656 7.425781 -1.828125 7.5 -1.734375 C 7.570312 -1.648438 7.6875 -1.597656 7.84375 -1.578125 L 7.84375 0 C 7.675781 0.03125 7.519531 0.0507812 7.375 0.0625 C 7.238281 0.0820312 7.125 0.09375 7.03125 0.09375 C 6.644531 0.09375 6.351562 0.0078125 6.15625 -0.15625 C 5.957031 -0.332031 5.832031 -0.546875 5.78125 -0.796875 L 5.734375 -1.1875 C 5.410156 -0.757812 5 -0.429688 4.5 -0.203125 C 4.007812 0.0234375 3.507812 0.140625 3 0.140625 C 2.5 0.140625 2.046875 0.0351562 1.640625 -0.171875 C 1.242188 -0.378906 0.929688 -0.660156 0.703125 -1.015625 C 0.472656 -1.378906 0.359375 -1.789062 0.359375 -2.25 Z M 5.078125 -1.859375 C 5.191406 -1.972656 5.28125 -2.085938 5.34375 -2.203125 C 5.414062 -2.316406 5.453125 -2.421875 5.453125 -2.515625 L 5.453125 -3.28125 C 5.210938 -3.382812 4.957031 -3.460938 4.6875 -3.515625 C 4.414062 -3.566406 4.160156 -3.59375 3.921875 -3.59375 C 3.421875 -3.59375 3.007812 -3.484375 2.6875 -3.265625 C 2.363281 -3.046875 2.203125 -2.757812 2.203125 -2.40625 C 2.203125 -2.207031 2.253906 -2.019531 2.359375 -1.84375 C 2.460938 -1.675781 2.613281 -1.539062 2.8125 -1.4375 C 3.019531 -1.332031 3.265625 -1.28125 3.546875 -1.28125 C 3.835938 -1.28125 4.125 -1.332031 4.40625 -1.4375 C 4.6875 -1.550781 4.910156 -1.691406 5.078125 -1.859375 Z M 5.078125 -1.859375 "></path></g></g></g><g fill="#88a9bc" fill-opacity="1"><g transform="translate(33.872018, 13.751808)"><g><path d="M 4.421875 0.140625 C 3.796875 0.140625 3.238281 0.0351562 2.75 -0.171875 C 2.257812 -0.378906 1.835938 -0.664062 1.484375 -1.03125 C 1.140625 -1.40625 0.875 -1.828125 0.6875 -2.296875 C 0.5 -2.773438 0.40625 -3.273438 0.40625 -3.796875 C 0.40625 -4.503906 0.566406 -5.15625 0.890625 -5.75 C 1.210938 -6.34375 1.671875 -6.816406 2.265625 -7.171875 C 2.867188 -7.535156 3.582031 -7.71875 4.40625 -7.71875 C 5.226562 -7.71875 5.929688 -7.535156 6.515625 -7.171875 C 7.109375 -6.816406 7.550781 -6.351562 7.84375 -5.78125 L 5.9375 -5.203125 C 5.769531 -5.484375 5.550781 -5.695312 5.28125 -5.84375 C 5.007812 -5.988281 4.710938 -6.0625 4.390625 -6.0625 C 4.023438 -6.0625 3.6875 -5.96875 3.375 -5.78125 C 3.070312 -5.59375 2.832031 -5.328125 2.65625 -4.984375 C 2.488281 -4.640625 2.40625 -4.242188 2.40625 -3.796875 C 2.40625 -3.347656 2.492188 -2.953125 2.671875 -2.609375 C 2.847656 -2.265625 3.085938 -1.992188 3.390625 -1.796875 C 3.691406 -1.597656 4.023438 -1.5 4.390625 -1.5 C 4.617188 -1.5 4.835938 -1.535156 5.046875 -1.609375 C 5.253906 -1.691406 5.441406 -1.800781 5.609375 -1.9375 C 5.773438 -2.070312 5.894531 -2.226562 5.96875 -2.40625 L 7.859375 -1.828125 C 7.691406 -1.453125 7.441406 -1.113281 7.109375 -0.8125 C 6.773438 -0.507812 6.382812 -0.273438 5.9375 -0.109375 C 5.488281 0.0546875 4.984375 0.140625 4.421875 0.140625 Z M 4.21875 2.90625 C 3.957031 2.90625 3.675781 2.867188 3.375 2.796875 C 3.082031 2.722656 2.785156 2.617188 2.484375 2.484375 L 2.96875 1.453125 C 3.113281 1.546875 3.257812 1.617188 3.40625 1.671875 C 3.5625 1.722656 3.722656 1.75 3.890625 1.75 C 4.140625 1.75 4.332031 1.691406 4.46875 1.578125 C 4.613281 1.472656 4.6875 1.3125 4.6875 1.09375 C 4.6875 0.894531 4.613281 0.707031 4.46875 0.53125 C 4.332031 0.351562 4.132812 0.175781 3.875 0 L 4.53125 -0.421875 C 4.914062 -0.171875 5.234375 0.0976562 5.484375 0.390625 C 5.734375 0.691406 5.859375 1.054688 5.859375 1.484375 C 5.859375 1.878906 5.71875 2.210938 5.4375 2.484375 C 5.164062 2.765625 4.757812 2.90625 4.21875 2.90625 Z M 4.21875 2.90625 "></path></g></g></g><g fill="#88a9bc" fill-opacity="1"><g transform="translate(42.04383, 13.751808)"><g><path d="M 4.390625 0.140625 C 3.773438 0.140625 3.21875 0.0351562 2.71875 -0.171875 C 2.226562 -0.378906 1.8125 -0.664062 1.46875 -1.03125 C 1.125 -1.394531 0.859375 -1.8125 0.671875 -2.28125 C 0.492188 -2.757812 0.40625 -3.257812 0.40625 -3.78125 C 0.40625 -4.3125 0.492188 -4.8125 0.671875 -5.28125 C 0.859375 -5.757812 1.125 -6.179688 1.46875 -6.546875 C 1.8125 -6.910156 2.226562 -7.195312 2.71875 -7.40625 C 3.21875 -7.613281 3.773438 -7.71875 4.390625 -7.71875 C 5.003906 -7.71875 5.554688 -7.613281 6.046875 -7.40625 C 6.535156 -7.195312 6.953125 -6.910156 7.296875 -6.546875 C 7.648438 -6.179688 7.914062 -5.757812 8.09375 -5.28125 C 8.269531 -4.8125 8.359375 -4.3125 8.359375 -3.78125 C 8.359375 -3.257812 8.269531 -2.757812 8.09375 -2.28125 C 7.914062 -1.8125 7.65625 -1.394531 7.3125 -1.03125 C 6.96875 -0.664062 6.546875 -0.378906 6.046875 -0.171875 C 5.554688 0.0351562 5.003906 0.140625 4.390625 0.140625 Z M 2.40625 -3.78125 C 2.40625 -3.332031 2.488281 -2.9375 2.65625 -2.59375 C 2.832031 -2.25 3.070312 -1.976562 3.375 -1.78125 C 3.675781 -1.59375 4.015625 -1.5 4.390625 -1.5 C 4.753906 -1.5 5.085938 -1.597656 5.390625 -1.796875 C 5.691406 -1.992188 5.929688 -2.265625 6.109375 -2.609375 C 6.285156 -2.953125 6.375 -3.347656 6.375 -3.796875 C 6.375 -4.234375 6.285156 -4.625 6.109375 -4.96875 C 5.929688 -5.3125 5.691406 -5.578125 5.390625 -5.765625 C 5.085938 -5.960938 4.753906 -6.0625 4.390625 -6.0625 C 4.015625 -6.0625 3.675781 -5.960938 3.375 -5.765625 C 3.070312 -5.566406 2.832031 -5.296875 2.65625 -4.953125 C 2.488281 -4.617188 2.40625 -4.226562 2.40625 -3.78125 Z M 2.40625 -3.78125 "></path></g></g></g><g fill="#88a9bc" fill-opacity="1"><g transform="translate(50.824177, 13.751808)"><g></g></g></g><g fill="#88a9bc" fill-opacity="1"><g transform="translate(54.301543, 13.751808)"><g><path d="M 5.4375 0.140625 C 4.84375 0.140625 4.320312 0.0078125 3.875 -0.25 C 3.425781 -0.519531 3.078125 -0.878906 2.828125 -1.328125 L 2.828125 3.078125 L 0.890625 3.078125 L 0.890625 -7.59375 L 2.578125 -7.59375 L 2.578125 -6.28125 C 2.867188 -6.726562 3.234375 -7.078125 3.671875 -7.328125 C 4.117188 -7.585938 4.628906 -7.71875 5.203125 -7.71875 C 5.710938 -7.71875 6.179688 -7.613281 6.609375 -7.40625 C 7.035156 -7.207031 7.410156 -6.925781 7.734375 -6.5625 C 8.054688 -6.207031 8.304688 -5.796875 8.484375 -5.328125 C 8.660156 -4.859375 8.75 -4.351562 8.75 -3.8125 C 8.75 -3.070312 8.601562 -2.398438 8.3125 -1.796875 C 8.03125 -1.203125 7.640625 -0.726562 7.140625 -0.375 C 6.648438 -0.03125 6.082031 0.140625 5.4375 0.140625 Z M 4.78125 -1.5 C 5.082031 -1.5 5.351562 -1.5625 5.59375 -1.6875 C 5.832031 -1.820312 6.039062 -1.992188 6.21875 -2.203125 C 6.394531 -2.421875 6.53125 -2.664062 6.625 -2.9375 C 6.71875 -3.21875 6.765625 -3.507812 6.765625 -3.8125 C 6.765625 -4.125 6.710938 -4.414062 6.609375 -4.6875 C 6.503906 -4.957031 6.351562 -5.195312 6.15625 -5.40625 C 5.96875 -5.613281 5.742188 -5.773438 5.484375 -5.890625 C 5.234375 -6.003906 4.957031 -6.0625 4.65625 -6.0625 C 4.476562 -6.0625 4.296875 -6.03125 4.109375 -5.96875 C 3.921875 -5.90625 3.738281 -5.816406 3.5625 -5.703125 C 3.382812 -5.585938 3.226562 -5.453125 3.09375 -5.296875 C 2.96875 -5.140625 2.878906 -4.972656 2.828125 -4.796875 L 2.828125 -3.015625 C 2.941406 -2.734375 3.097656 -2.472656 3.296875 -2.234375 C 3.492188 -2.003906 3.722656 -1.820312 3.984375 -1.6875 C 4.242188 -1.5625 4.507812 -1.5 4.78125 -1.5 Z M 4.78125 -1.5 "></path></g></g></g><g fill="#88a9bc" fill-opacity="1"><g transform="translate(63.487586, 13.751808)"><g><path d="M 4.40625 0.140625 C 3.789062 0.140625 3.238281 0.0351562 2.75 -0.171875 C 2.257812 -0.378906 1.835938 -0.660156 1.484375 -1.015625 C 1.140625 -1.378906 0.875 -1.796875 0.6875 -2.265625 C 0.5 -2.734375 0.40625 -3.226562 0.40625 -3.75 C 0.40625 -4.476562 0.566406 -5.140625 0.890625 -5.734375 C 1.210938 -6.335938 1.675781 -6.816406 2.28125 -7.171875 C 2.882812 -7.535156 3.597656 -7.71875 4.421875 -7.71875 C 5.242188 -7.71875 5.953125 -7.535156 6.546875 -7.171875 C 7.140625 -6.816406 7.59375 -6.34375 7.90625 -5.75 C 8.21875 -5.15625 8.375 -4.515625 8.375 -3.828125 C 8.375 -3.710938 8.367188 -3.59375 8.359375 -3.46875 C 8.347656 -3.34375 8.335938 -3.242188 8.328125 -3.171875 L 2.46875 -3.171875 C 2.5 -2.785156 2.609375 -2.445312 2.796875 -2.15625 C 2.984375 -1.863281 3.222656 -1.644531 3.515625 -1.5 C 3.816406 -1.351562 4.132812 -1.28125 4.46875 -1.28125 C 4.863281 -1.28125 5.226562 -1.375 5.5625 -1.5625 C 5.90625 -1.75 6.140625 -1.992188 6.265625 -2.296875 L 7.9375 -1.84375 C 7.75 -1.457031 7.484375 -1.113281 7.140625 -0.8125 C 6.804688 -0.507812 6.40625 -0.273438 5.9375 -0.109375 C 5.476562 0.0546875 4.96875 0.140625 4.40625 0.140625 Z M 2.421875 -4.40625 L 6.390625 -4.40625 C 6.347656 -4.789062 6.238281 -5.125 6.0625 -5.40625 C 5.882812 -5.695312 5.648438 -5.921875 5.359375 -6.078125 C 5.066406 -6.234375 4.742188 -6.3125 4.390625 -6.3125 C 4.046875 -6.3125 3.726562 -6.234375 3.4375 -6.078125 C 3.15625 -5.921875 2.925781 -5.695312 2.75 -5.40625 C 2.570312 -5.125 2.460938 -4.789062 2.421875 -4.40625 Z M 2.421875 -4.40625 "></path></g></g></g><g fill="#88a9bc" fill-opacity="1"><g transform="translate(72.16651, 13.751808)"><g><path d="M 0.421875 -3.796875 C 0.421875 -4.523438 0.566406 -5.1875 0.859375 -5.78125 C 1.148438 -6.375 1.550781 -6.84375 2.0625 -7.1875 C 2.570312 -7.539062 3.15625 -7.71875 3.8125 -7.71875 C 4.375 -7.71875 4.878906 -7.578125 5.328125 -7.296875 C 5.773438 -7.023438 6.125 -6.675781 6.375 -6.25 L 6.375 -10.578125 L 8.3125 -10.578125 L 8.3125 -2.171875 C 8.3125 -1.972656 8.34375 -1.828125 8.40625 -1.734375 C 8.476562 -1.648438 8.597656 -1.597656 8.765625 -1.578125 L 8.765625 0 C 8.421875 0.0625 8.144531 0.09375 7.9375 0.09375 C 7.59375 0.09375 7.304688 0.0078125 7.078125 -0.15625 C 6.847656 -0.332031 6.71875 -0.5625 6.6875 -0.84375 L 6.65625 -1.3125 C 6.382812 -0.84375 6.007812 -0.484375 5.53125 -0.234375 C 5.050781 0.015625 4.550781 0.140625 4.03125 0.140625 C 3.507812 0.140625 3.023438 0.0390625 2.578125 -0.15625 C 2.140625 -0.363281 1.757812 -0.644531 1.4375 -1 C 1.113281 -1.351562 0.863281 -1.769531 0.6875 -2.25 C 0.507812 -2.726562 0.421875 -3.242188 0.421875 -3.796875 Z M 6.375 -2.78125 L 6.375 -4.59375 C 6.28125 -4.875 6.125 -5.125 5.90625 -5.34375 C 5.695312 -5.5625 5.460938 -5.734375 5.203125 -5.859375 C 4.941406 -5.992188 4.679688 -6.0625 4.421875 -6.0625 C 4.117188 -6.0625 3.847656 -6 3.609375 -5.875 C 3.367188 -5.75 3.15625 -5.582031 2.96875 -5.375 C 2.789062 -5.164062 2.65625 -4.921875 2.5625 -4.640625 C 2.476562 -4.359375 2.4375 -4.0625 2.4375 -3.75 C 2.4375 -3.4375 2.484375 -3.144531 2.578125 -2.875 C 2.679688 -2.601562 2.828125 -2.363281 3.015625 -2.15625 C 3.210938 -1.957031 3.4375 -1.796875 3.6875 -1.671875 C 3.945312 -1.554688 4.226562 -1.5 4.53125 -1.5 C 4.71875 -1.5 4.90625 -1.53125 5.09375 -1.59375 C 5.28125 -1.65625 5.457031 -1.742188 5.625 -1.859375 C 5.789062 -1.972656 5.9375 -2.109375 6.0625 -2.265625 C 6.195312 -2.421875 6.300781 -2.59375 6.375 -2.78125 Z M 6.375 -2.78125 "></path></g></g></g><g fill="#88a9bc" fill-opacity="1"><g transform="translate(81.511929, 13.751808)"><g><path d="M 0.359375 -2.25 C 0.359375 -2.738281 0.492188 -3.164062 0.765625 -3.53125 C 1.046875 -3.90625 1.429688 -4.191406 1.921875 -4.390625 C 2.421875 -4.597656 2.988281 -4.703125 3.625 -4.703125 C 3.9375 -4.703125 4.253906 -4.675781 4.578125 -4.625 C 4.910156 -4.582031 5.203125 -4.507812 5.453125 -4.40625 L 5.453125 -4.8125 C 5.453125 -5.289062 5.304688 -5.660156 5.015625 -5.921875 C 4.734375 -6.179688 4.3125 -6.3125 3.75 -6.3125 C 3.332031 -6.3125 2.9375 -6.238281 2.5625 -6.09375 C 2.1875 -5.945312 1.789062 -5.734375 1.375 -5.453125 L 0.75 -6.734375 C 1.25 -7.066406 1.757812 -7.3125 2.28125 -7.46875 C 2.8125 -7.632812 3.367188 -7.71875 3.953125 -7.71875 C 5.035156 -7.71875 5.878906 -7.445312 6.484375 -6.90625 C 7.085938 -6.363281 7.390625 -5.59375 7.390625 -4.59375 L 7.390625 -2.171875 C 7.390625 -1.972656 7.425781 -1.828125 7.5 -1.734375 C 7.570312 -1.648438 7.6875 -1.597656 7.84375 -1.578125 L 7.84375 0 C 7.675781 0.03125 7.519531 0.0507812 7.375 0.0625 C 7.238281 0.0820312 7.125 0.09375 7.03125 0.09375 C 6.644531 0.09375 6.351562 0.0078125 6.15625 -0.15625 C 5.957031 -0.332031 5.832031 -0.546875 5.78125 -0.796875 L 5.734375 -1.1875 C 5.410156 -0.757812 5 -0.429688 4.5 -0.203125 C 4.007812 0.0234375 3.507812 0.140625 3 0.140625 C 2.5 0.140625 2.046875 0.0351562 1.640625 -0.171875 C 1.242188 -0.378906 0.929688 -0.660156 0.703125 -1.015625 C 0.472656 -1.378906 0.359375 -1.789062 0.359375 -2.25 Z M 5.078125 -1.859375 C 5.191406 -1.972656 5.28125 -2.085938 5.34375 -2.203125 C 5.414062 -2.316406 5.453125 -2.421875 5.453125 -2.515625 L 5.453125 -3.28125 C 5.210938 -3.382812 4.957031 -3.460938 4.6875 -3.515625 C 4.414062 -3.566406 4.160156 -3.59375 3.921875 -3.59375 C 3.421875 -3.59375 3.007812 -3.484375 2.6875 -3.265625 C 2.363281 -3.046875 2.203125 -2.757812 2.203125 -2.40625 C 2.203125 -2.207031 2.253906 -2.019531 2.359375 -1.84375 C 2.460938 -1.675781 2.613281 -1.539062 2.8125 -1.4375 C 3.019531 -1.332031 3.265625 -1.28125 3.546875 -1.28125 C 3.835938 -1.28125 4.125 -1.332031 4.40625 -1.4375 C 4.6875 -1.550781 4.910156 -1.691406 5.078125 -1.859375 Z M 5.078125 -1.859375 "></path></g></g></g><g fill="#88a9bc" fill-opacity="1"><g transform="translate(89.828628, 13.751808)"><g><path d="M 3.859375 0.046875 C 3.347656 0.046875 2.882812 -0.0507812 2.46875 -0.25 C 2.050781 -0.445312 1.6875 -0.722656 1.375 -1.078125 C 1.070312 -1.441406 0.835938 -1.851562 0.671875 -2.3125 C 0.515625 -2.78125 0.4375 -3.273438 0.4375 -3.796875 C 0.4375 -4.347656 0.519531 -4.859375 0.6875 -5.328125 C 0.863281 -5.804688 1.109375 -6.222656 1.421875 -6.578125 C 1.734375 -6.941406 2.101562 -7.222656 2.53125 -7.421875 C 2.96875 -7.617188 3.445312 -7.71875 3.96875 -7.71875 C 4.5625 -7.71875 5.078125 -7.582031 5.515625 -7.3125 C 5.960938 -7.050781 6.332031 -6.695312 6.625 -6.25 L 6.625 -7.59375 L 8.3125 -7.59375 L 8.3125 -0.359375 C 8.3125 0.390625 8.128906 1.03125 7.765625 1.5625 C 7.410156 2.101562 6.910156 2.515625 6.265625 2.796875 C 5.628906 3.085938 4.90625 3.234375 4.09375 3.234375 C 3.28125 3.234375 2.585938 3.09375 2.015625 2.8125 C 1.441406 2.539062 0.953125 2.15625 0.546875 1.65625 L 1.609375 0.625 C 1.898438 0.976562 2.265625 1.253906 2.703125 1.453125 C 3.140625 1.660156 3.601562 1.765625 4.09375 1.765625 C 4.507812 1.765625 4.890625 1.6875 5.234375 1.53125 C 5.578125 1.382812 5.851562 1.15625 6.0625 0.84375 C 6.269531 0.53125 6.375 0.128906 6.375 -0.359375 L 6.375 -1.3125 C 6.125 -0.882812 5.769531 -0.550781 5.3125 -0.3125 C 4.851562 -0.0703125 4.367188 0.046875 3.859375 0.046875 Z M 4.5 -1.5 C 4.71875 -1.5 4.921875 -1.53125 5.109375 -1.59375 C 5.304688 -1.664062 5.484375 -1.757812 5.640625 -1.875 C 5.804688 -2 5.953125 -2.140625 6.078125 -2.296875 C 6.203125 -2.453125 6.300781 -2.613281 6.375 -2.78125 L 6.375 -4.59375 C 6.257812 -4.894531 6.097656 -5.15625 5.890625 -5.375 C 5.679688 -5.59375 5.445312 -5.757812 5.1875 -5.875 C 4.9375 -6 4.671875 -6.0625 4.390625 -6.0625 C 4.085938 -6.0625 3.816406 -6 3.578125 -5.875 C 3.335938 -5.75 3.128906 -5.570312 2.953125 -5.34375 C 2.773438 -5.125 2.640625 -4.875 2.546875 -4.59375 C 2.460938 -4.320312 2.421875 -4.035156 2.421875 -3.734375 C 2.421875 -3.429688 2.472656 -3.144531 2.578125 -2.875 C 2.679688 -2.601562 2.828125 -2.363281 3.015625 -2.15625 C 3.203125 -1.957031 3.421875 -1.796875 3.671875 -1.671875 C 3.929688 -1.554688 4.207031 -1.5 4.5 -1.5 Z M 4.5 -1.5 "></path></g></g></g><g fill="#88a9bc" fill-opacity="1"><g transform="translate(99.01467, 13.751808)"><g><path d="M 4.390625 0.140625 C 3.773438 0.140625 3.21875 0.0351562 2.71875 -0.171875 C 2.226562 -0.378906 1.8125 -0.664062 1.46875 -1.03125 C 1.125 -1.394531 0.859375 -1.8125 0.671875 -2.28125 C 0.492188 -2.757812 0.40625 -3.257812 0.40625 -3.78125 C 0.40625 -4.3125 0.492188 -4.8125 0.671875 -5.28125 C 0.859375 -5.757812 1.125 -6.179688 1.46875 -6.546875 C 1.8125 -6.910156 2.226562 -7.195312 2.71875 -7.40625 C 3.21875 -7.613281 3.773438 -7.71875 4.390625 -7.71875 C 5.003906 -7.71875 5.554688 -7.613281 6.046875 -7.40625 C 6.535156 -7.195312 6.953125 -6.910156 7.296875 -6.546875 C 7.648438 -6.179688 7.914062 -5.757812 8.09375 -5.28125 C 8.269531 -4.8125 8.359375 -4.3125 8.359375 -3.78125 C 8.359375 -3.257812 8.269531 -2.757812 8.09375 -2.28125 C 7.914062 -1.8125 7.65625 -1.394531 7.3125 -1.03125 C 6.96875 -0.664062 6.546875 -0.378906 6.046875 -0.171875 C 5.554688 0.0351562 5.003906 0.140625 4.390625 0.140625 Z M 2.40625 -3.78125 C 2.40625 -3.332031 2.488281 -2.9375 2.65625 -2.59375 C 2.832031 -2.25 3.070312 -1.976562 3.375 -1.78125 C 3.675781 -1.59375 4.015625 -1.5 4.390625 -1.5 C 4.753906 -1.5 5.085938 -1.597656 5.390625 -1.796875 C 5.691406 -1.992188 5.929688 -2.265625 6.109375 -2.609375 C 6.285156 -2.953125 6.375 -3.347656 6.375 -3.796875 C 6.375 -4.234375 6.285156 -4.625 6.109375 -4.96875 C 5.929688 -5.3125 5.691406 -5.578125 5.390625 -5.765625 C 5.085938 -5.960938 4.753906 -6.0625 4.390625 -6.0625 C 4.015625 -6.0625 3.675781 -5.960938 3.375 -5.765625 C 3.070312 -5.566406 2.832031 -5.296875 2.65625 -4.953125 C 2.488281 -4.617188 2.40625 -4.226562 2.40625 -3.78125 Z M 5.015625 -8.46875 L 3.78125 -8.84375 L 4.5625 -10.578125 L 6.375 -10.578125 Z M 5.015625 -8.46875 "></path></g></g></g><g fill="#88a9bc" fill-opacity="1"><g transform="translate(107.795017, 13.751808)"><g><path d="M 3.859375 0.046875 C 3.347656 0.046875 2.882812 -0.0507812 2.46875 -0.25 C 2.050781 -0.445312 1.6875 -0.722656 1.375 -1.078125 C 1.070312 -1.441406 0.835938 -1.851562 0.671875 -2.3125 C 0.515625 -2.78125 0.4375 -3.273438 0.4375 -3.796875 C 0.4375 -4.347656 0.519531 -4.859375 0.6875 -5.328125 C 0.863281 -5.804688 1.109375 -6.222656 1.421875 -6.578125 C 1.734375 -6.941406 2.101562 -7.222656 2.53125 -7.421875 C 2.96875 -7.617188 3.445312 -7.71875 3.96875 -7.71875 C 4.5625 -7.71875 5.078125 -7.582031 5.515625 -7.3125 C 5.960938 -7.050781 6.332031 -6.695312 6.625 -6.25 L 6.625 -7.59375 L 8.3125 -7.59375 L 8.3125 -0.359375 C 8.3125 0.390625 8.128906 1.03125 7.765625 1.5625 C 7.410156 2.101562 6.910156 2.515625 6.265625 2.796875 C 5.628906 3.085938 4.90625 3.234375 4.09375 3.234375 C 3.28125 3.234375 2.585938 3.09375 2.015625 2.8125 C 1.441406 2.539062 0.953125 2.15625 0.546875 1.65625 L 1.609375 0.625 C 1.898438 0.976562 2.265625 1.253906 2.703125 1.453125 C 3.140625 1.660156 3.601562 1.765625 4.09375 1.765625 C 4.507812 1.765625 4.890625 1.6875 5.234375 1.53125 C 5.578125 1.382812 5.851562 1.15625 6.0625 0.84375 C 6.269531 0.53125 6.375 0.128906 6.375 -0.359375 L 6.375 -1.3125 C 6.125 -0.882812 5.769531 -0.550781 5.3125 -0.3125 C 4.851562 -0.0703125 4.367188 0.046875 3.859375 0.046875 Z M 4.5 -1.5 C 4.71875 -1.5 4.921875 -1.53125 5.109375 -1.59375 C 5.304688 -1.664062 5.484375 -1.757812 5.640625 -1.875 C 5.804688 -2 5.953125 -2.140625 6.078125 -2.296875 C 6.203125 -2.453125 6.300781 -2.613281 6.375 -2.78125 L 6.375 -4.59375 C 6.257812 -4.894531 6.097656 -5.15625 5.890625 -5.375 C 5.679688 -5.59375 5.445312 -5.757812 5.1875 -5.875 C 4.9375 -6 4.671875 -6.0625 4.390625 -6.0625 C 4.085938 -6.0625 3.816406 -6 3.578125 -5.875 C 3.335938 -5.75 3.128906 -5.570312 2.953125 -5.34375 C 2.773438 -5.125 2.640625 -4.875 2.546875 -4.59375 C 2.460938 -4.320312 2.421875 -4.035156 2.421875 -3.734375 C 2.421875 -3.429688 2.472656 -3.144531 2.578125 -2.875 C 2.679688 -2.601562 2.828125 -2.363281 3.015625 -2.15625 C 3.203125 -1.957031 3.421875 -1.796875 3.671875 -1.671875 C 3.929688 -1.554688 4.207031 -1.5 4.5 -1.5 Z M 4.5 -1.5 "></path></g></g></g><g fill="#88a9bc" fill-opacity="1"><g transform="translate(116.981066, 13.751808)"><g><path d="M 0.890625 0 L 0.890625 -7.59375 L 2.828125 -7.59375 L 2.828125 0 Z M 0.890625 -8.640625 L 0.890625 -10.578125 L 2.828125 -10.578125 L 2.828125 -8.640625 Z M 0.890625 -8.640625 "></path></g></g></g><g fill="#88a9bc" fill-opacity="1"><g transform="translate(120.675766, 13.751808)"><g><path d="M 4.421875 0.140625 C 3.796875 0.140625 3.238281 0.0351562 2.75 -0.171875 C 2.257812 -0.378906 1.835938 -0.664062 1.484375 -1.03125 C 1.140625 -1.40625 0.875 -1.828125 0.6875 -2.296875 C 0.5 -2.773438 0.40625 -3.273438 0.40625 -3.796875 C 0.40625 -4.503906 0.566406 -5.15625 0.890625 -5.75 C 1.210938 -6.34375 1.671875 -6.816406 2.265625 -7.171875 C 2.867188 -7.535156 3.582031 -7.71875 4.40625 -7.71875 C 5.226562 -7.71875 5.929688 -7.535156 6.515625 -7.171875 C 7.109375 -6.816406 7.550781 -6.351562 7.84375 -5.78125 L 5.9375 -5.203125 C 5.769531 -5.484375 5.550781 -5.695312 5.28125 -5.84375 C 5.007812 -5.988281 4.710938 -6.0625 4.390625 -6.0625 C 4.023438 -6.0625 3.6875 -5.96875 3.375 -5.78125 C 3.070312 -5.59375 2.832031 -5.328125 2.65625 -4.984375 C 2.488281 -4.640625 2.40625 -4.242188 2.40625 -3.796875 C 2.40625 -3.347656 2.492188 -2.953125 2.671875 -2.609375 C 2.847656 -2.265625 3.085938 -1.992188 3.390625 -1.796875 C 3.691406 -1.597656 4.023438 -1.5 4.390625 -1.5 C 4.617188 -1.5 4.835938 -1.535156 5.046875 -1.609375 C 5.253906 -1.691406 5.441406 -1.800781 5.609375 -1.9375 C 5.773438 -2.070312 5.894531 -2.226562 5.96875 -2.40625 L 7.859375 -1.828125 C 7.691406 -1.453125 7.441406 -1.113281 7.109375 -0.8125 C 6.773438 -0.507812 6.382812 -0.273438 5.9375 -0.109375 C 5.488281 0.0546875 4.984375 0.140625 4.421875 0.140625 Z M 4.421875 0.140625 "></path></g></g></g><g clip-path="url(#40409ab058)"><g fill="#88a9bc" fill-opacity="1"><g transform="translate(128.847568, 13.751808)"><g><path d="M 4.390625 0.140625 C 3.773438 0.140625 3.21875 0.0351562 2.71875 -0.171875 C 2.226562 -0.378906 1.8125 -0.664062 1.46875 -1.03125 C 1.125 -1.394531 0.859375 -1.8125 0.671875 -2.28125 C 0.492188 -2.757812 0.40625 -3.257812 0.40625 -3.78125 C 0.40625 -4.3125 0.492188 -4.8125 0.671875 -5.28125 C 0.859375 -5.757812 1.125 -6.179688 1.46875 -6.546875 C 1.8125 -6.910156 2.226562 -7.195312 2.71875 -7.40625 C 3.21875 -7.613281 3.773438 -7.71875 4.390625 -7.71875 C 5.003906 -7.71875 5.554688 -7.613281 6.046875 -7.40625 C 6.535156 -7.195312 6.953125 -6.910156 7.296875 -6.546875 C 7.648438 -6.179688 7.914062 -5.757812 8.09375 -5.28125 C 8.269531 -4.8125 8.359375 -4.3125 8.359375 -3.78125 C 8.359375 -3.257812 8.269531 -2.757812 8.09375 -2.28125 C 7.914062 -1.8125 7.65625 -1.394531 7.3125 -1.03125 C 6.96875 -0.664062 6.546875 -0.378906 6.046875 -0.171875 C 5.554688 0.0351562 5.003906 0.140625 4.390625 0.140625 Z M 2.40625 -3.78125 C 2.40625 -3.332031 2.488281 -2.9375 2.65625 -2.59375 C 2.832031 -2.25 3.070312 -1.976562 3.375 -1.78125 C 3.675781 -1.59375 4.015625 -1.5 4.390625 -1.5 C 4.753906 -1.5 5.085938 -1.597656 5.390625 -1.796875 C 5.691406 -1.992188 5.929688 -2.265625 6.109375 -2.609375 C 6.285156 -2.953125 6.375 -3.347656 6.375 -3.796875 C 6.375 -4.234375 6.285156 -4.625 6.109375 -4.96875 C 5.929688 -5.3125 5.691406 -5.578125 5.390625 -5.765625 C 5.085938 -5.960938 4.753906 -6.0625 4.390625 -6.0625 C 4.015625 -6.0625 3.675781 -5.960938 3.375 -5.765625 C 3.070312 -5.566406 2.832031 -5.296875 2.65625 -4.953125 C 2.488281 -4.617188 2.40625 -4.226562 2.40625 -3.78125 Z M 2.40625 -3.78125 "></path></g></g></g></g></g></g><g transform="matrix(1, 0, 0, 1, 103, -0.00000000000000949)"><g clip-path="url(#cb739cb08e)"><g fill="#95c8c3" fill-opacity="1"><g transform="translate(0.339239, 74.16069)"><g><path d="M 28.109375 0 C 26.554688 0 25.410156 -0.179688 24.671875 -0.546875 C 23.929688 -0.921875 23.375 -1.570312 23 -2.5 C 22.195312 -1.757812 20.972656 -1.1875 19.328125 -0.78125 C 17.691406 -0.382812 16.257812 -0.1875 15.03125 -0.1875 C 11.132812 -0.1875 8.117188 -1.578125 5.984375 -4.359375 C 3.847656 -7.140625 2.78125 -11.066406 2.78125 -16.140625 C 2.78125 -19.597656 3.367188 -22.546875 4.546875 -24.984375 C 5.722656 -27.429688 7.285156 -29.304688 9.234375 -30.609375 C 11.179688 -31.910156 13.296875 -32.5625 15.578125 -32.5625 C 17.367188 -32.5625 18.820312 -32.265625 19.9375 -31.671875 C 21.050781 -31.085938 21.945312 -30.609375 22.625 -30.234375 C 22.625 -34.867188 22.175781 -38.375 21.28125 -40.75 C 20.382812 -43.132812 18.851562 -44.328125 16.6875 -44.328125 C 15.082031 -44.328125 13.925781 -43.597656 13.21875 -42.140625 C 12.507812 -40.691406 12.15625 -39.164062 12.15625 -37.5625 C 12.15625 -36.445312 11.734375 -35.625 10.890625 -35.09375 C 10.054688 -34.570312 9.023438 -34.3125 7.796875 -34.3125 C 4.765625 -34.3125 3.25 -35.550781 3.25 -38.03125 C 3.25 -42.050781 4.375 -45.359375 6.625 -47.953125 C 8.882812 -50.546875 12.238281 -51.84375 16.6875 -51.84375 C 20.769531 -51.84375 23.878906 -50.882812 26.015625 -48.96875 C 28.148438 -47.050781 29.570312 -44.222656 30.28125 -40.484375 C 30.988281 -36.742188 31.222656 -32.0625 30.984375 -26.4375 C 30.984375 -19.320312 31.070312 -13.957031 31.25 -10.34375 C 31.4375 -6.726562 31.59375 -4.765625 31.71875 -4.453125 C 31.84375 -4.140625 31.90625 -3.84375 31.90625 -3.5625 C 31.90625 -3.289062 31.90625 -3.0625 31.90625 -2.875 C 31.90625 -2.007812 31.5625 -1.3125 30.875 -0.78125 C 30.195312 -0.257812 29.273438 0 28.109375 0 Z M 16.609375 -7.96875 C 18.460938 -7.96875 19.695312 -8.753906 20.3125 -10.328125 C 20.925781 -11.910156 21.234375 -14.03125 21.234375 -16.6875 C 21.234375 -19.039062 20.941406 -21.019531 20.359375 -22.625 C 19.773438 -24.238281 18.613281 -25.046875 16.875 -25.046875 C 14.78125 -25.046875 13.253906 -24.238281 12.296875 -22.625 C 11.335938 -21.019531 10.859375 -18.984375 10.859375 -16.515625 C 10.859375 -14.035156 11.335938 -11.988281 12.296875 -10.375 C 13.253906 -8.769531 14.691406 -7.96875 16.609375 -7.96875 Z M 16.609375 -7.96875 "></path></g></g></g></g></g><g transform="matrix(1, 0, 0, 1, 235, -0.00000000000000949)"><g clip-path="url(#95be8f71cc)"><g fill="#95c8c3" fill-opacity="1"><g transform="translate(0.201258, 68.013385)"><g><path d="M 18.90625 0.921875 C 17.375 0.921875 16.101562 0.628906 15.09375 0.046875 C 14.09375 -0.535156 13.59375 -1.867188 13.59375 -3.953125 C 13.59375 -3.953125 13.59375 -4.332031 13.59375 -5.09375 C 13.59375 -5.863281 13.601562 -6.75 13.625 -7.75 C 13.65625 -8.757812 13.671875 -9.664062 13.671875 -10.46875 C 13.734375 -13.21875 13.78125 -15.953125 13.8125 -18.671875 C 13.84375 -21.398438 13.859375 -23.957031 13.859375 -26.34375 C 13.859375 -29.957031 13.890625 -33.722656 13.953125 -37.640625 C 14.015625 -41.554688 13.921875 -45.5625 13.671875 -49.65625 L 13.59375 -51.21875 C 13.59375 -52.9375 13.332031 -54.128906 12.8125 -54.796875 C 12.289062 -55.472656 11.460938 -55.882812 10.328125 -56.03125 C 9.191406 -56.1875 7.707031 -56.265625 5.875 -56.265625 C 4.039062 -56.265625 2.785156 -56.476562 2.109375 -56.90625 C 1.441406 -57.34375 1.078125 -57.894531 1.015625 -58.5625 C 0.953125 -59.238281 0.921875 -59.941406 0.921875 -60.671875 C 0.921875 -61.835938 1.300781 -62.785156 2.0625 -63.515625 C 2.832031 -64.253906 3.644531 -64.625 4.5 -64.625 C 9.519531 -64.625 14.445312 -64.609375 19.28125 -64.578125 C 24.113281 -64.546875 28.425781 -64.53125 32.21875 -64.53125 C 33.382812 -64.53125 34.300781 -64.175781 34.96875 -63.46875 C 35.644531 -62.769531 35.984375 -62.054688 35.984375 -61.328125 C 35.984375 -60.585938 35.675781 -59.664062 35.0625 -58.5625 C 34.457031 -57.46875 33.359375 -56.765625 31.765625 -56.453125 C 30.234375 -56.148438 29.066406 -55.984375 28.265625 -55.953125 C 27.472656 -55.921875 26.648438 -55.84375 25.796875 -55.71875 C 24.628906 -55.539062 23.847656 -55.175781 23.453125 -54.625 C 23.054688 -54.070312 22.859375 -53.273438 22.859375 -52.234375 C 22.859375 -51.378906 22.84375 -50.125 22.8125 -48.46875 C 22.78125 -46.8125 22.75 -45.066406 22.71875 -43.234375 C 22.6875 -41.398438 22.65625 -39.71875 22.625 -38.1875 C 22.59375 -36.65625 22.578125 -35.554688 22.578125 -34.890625 L 22.859375 -4.5 C 22.859375 -2.601562 22.582031 -1.222656 22.03125 -0.359375 C 21.476562 0.492188 20.4375 0.921875 18.90625 0.921875 Z M 18.90625 0.921875 "></path></g></g></g></g></g><g transform="matrix(1, 0, 0, 1, 75, 10)"><g clip-path="url(#032640fbbb)"><g fill="#cd7f5f" fill-opacity="1"><g transform="translate(0.60364, 69.696541)"><g><path d="M 14.3125 0.6875 C 13.15625 0.6875 12.191406 0.46875 11.421875 0.03125 C 10.660156 -0.40625 10.28125 -1.410156 10.28125 -2.984375 C 10.28125 -2.984375 10.28125 -3.273438 10.28125 -3.859375 C 10.28125 -4.441406 10.289062 -5.113281 10.3125 -5.875 C 10.34375 -6.632812 10.359375 -7.316406 10.359375 -7.921875 C 10.398438 -10.003906 10.429688 -12.078125 10.453125 -14.140625 C 10.484375 -16.203125 10.5 -18.140625 10.5 -19.953125 C 10.5 -22.679688 10.519531 -25.53125 10.5625 -28.5 C 10.613281 -31.46875 10.546875 -34.503906 10.359375 -37.609375 L 10.28125 -38.796875 C 10.28125 -40.085938 10.082031 -40.988281 9.6875 -41.5 C 9.300781 -42.007812 8.675781 -42.320312 7.8125 -42.4375 C 6.957031 -42.550781 5.835938 -42.609375 4.453125 -42.609375 C 3.054688 -42.609375 2.101562 -42.769531 1.59375 -43.09375 C 1.082031 -43.425781 0.800781 -43.84375 0.75 -44.34375 C 0.707031 -44.851562 0.6875 -45.390625 0.6875 -45.953125 C 0.6875 -46.828125 0.976562 -47.539062 1.5625 -48.09375 C 2.144531 -48.65625 2.757812 -48.9375 3.40625 -48.9375 C 7.207031 -48.9375 10.9375 -48.925781 14.59375 -48.90625 C 18.257812 -48.882812 21.53125 -48.875 24.40625 -48.875 C 25.28125 -48.875 25.972656 -48.601562 26.484375 -48.0625 C 26.992188 -47.53125 27.25 -46.988281 27.25 -46.4375 C 27.25 -45.882812 27.015625 -45.1875 26.546875 -44.34375 C 26.085938 -43.507812 25.253906 -42.976562 24.046875 -42.75 C 22.890625 -42.519531 22.007812 -42.390625 21.40625 -42.359375 C 20.800781 -42.335938 20.175781 -42.285156 19.53125 -42.203125 C 18.65625 -42.054688 18.066406 -41.773438 17.765625 -41.359375 C 17.460938 -40.941406 17.3125 -40.335938 17.3125 -39.546875 C 17.3125 -38.898438 17.296875 -37.953125 17.265625 -36.703125 C 17.242188 -35.453125 17.222656 -34.128906 17.203125 -32.734375 C 17.179688 -31.347656 17.15625 -30.078125 17.125 -28.921875 C 17.101562 -27.765625 17.09375 -26.929688 17.09375 -26.421875 L 17.3125 -3.40625 C 17.3125 -1.96875 17.101562 -0.925781 16.6875 -0.28125 C 16.269531 0.363281 15.476562 0.6875 14.3125 0.6875 Z M 14.3125 0.6875 "></path></g></g></g></g></g><g transform="matrix(1, 0, 0, 1, 213, -0.00000000000000949)"><g clip-path="url(#90e461f81d)"><g fill="#cd7f5f" fill-opacity="1"><g transform="translate(0.532895, 71.060257)"><g><path d="M 6.40625 0.078125 C 4.914062 0.078125 3.796875 -0.15625 3.046875 -0.625 C 2.304688 -1.101562 1.9375 -2.1875 1.9375 -3.875 C 1.9375 -3.875 1.921875 -4.394531 1.890625 -5.4375 C 1.867188 -6.476562 1.882812 -7.472656 1.9375 -8.421875 C 1.9375 -11.847656 1.960938 -14.890625 2.015625 -17.546875 C 2.066406 -20.203125 2.09375 -22.625 2.09375 -24.8125 C 2.09375 -26.300781 2.078125 -27.875 2.046875 -29.53125 C 2.023438 -31.195312 1.988281 -32.875 1.9375 -34.5625 L 1.71875 -39.640625 C 1.664062 -40.328125 1.925781 -40.878906 2.5 -41.296875 C 3.070312 -41.722656 3.828125 -41.9375 4.765625 -41.9375 C 6.003906 -41.9375 6.957031 -41.578125 7.625 -40.859375 C 8.300781 -40.140625 8.789062 -39.285156 9.09375 -38.296875 C 9.632812 -39.140625 10.613281 -39.921875 12.03125 -40.640625 C 13.445312 -41.359375 14.847656 -41.71875 16.234375 -41.71875 C 20.265625 -41.71875 23.132812 -40.113281 24.84375 -36.90625 C 26.5625 -33.707031 27.421875 -29.078125 27.421875 -23.015625 C 27.421875 -22.222656 27.441406 -20.96875 27.484375 -19.25 C 27.535156 -17.539062 27.585938 -15.703125 27.640625 -13.734375 C 27.691406 -11.773438 27.753906 -9.9375 27.828125 -8.21875 C 27.898438 -6.507812 27.9375 -5.210938 27.9375 -4.328125 C 27.988281 -2.785156 27.753906 -1.664062 27.234375 -0.96875 C 26.710938 -0.269531 25.707031 0.078125 24.21875 0.078125 C 22.96875 0.078125 21.992188 -0.15625 21.296875 -0.625 C 20.609375 -1.101562 20.265625 -2.1875 20.265625 -3.875 C 20.265625 -4.96875 20.265625 -6.429688 20.265625 -8.265625 C 20.265625 -10.109375 20.265625 -12.046875 20.265625 -14.078125 C 20.265625 -16.117188 20.265625 -17.90625 20.265625 -19.4375 C 20.359375 -24.457031 20.070312 -28.429688 19.40625 -31.359375 C 18.738281 -34.296875 17.3125 -35.765625 15.125 -35.765625 C 13.1875 -35.765625 11.71875 -34.507812 10.71875 -32 C 9.726562 -29.488281 9.234375 -25.300781 9.234375 -19.4375 C 9.234375 -17.75 9.269531 -15.488281 9.34375 -12.65625 C 9.425781 -9.832031 9.515625 -7.054688 9.609375 -4.328125 C 9.609375 -2.785156 9.382812 -1.664062 8.9375 -0.96875 C 8.488281 -0.269531 7.644531 0.078125 6.40625 0.078125 Z M 6.40625 0.078125 "></path></g></g></g></g></g><g transform="matrix(1, 0, 0, 1, 40, -0.00000000000000949)"><g clip-path="url(#67752684b4)"><g fill="#ffd230" fill-opacity="1"><g transform="translate(3.52795, 69.848015)"><g><path d="M 27.171875 -0.71875 C 25.671875 -0.675781 24.554688 -0.820312 23.828125 -1.15625 C 23.097656 -1.5 22.550781 -2.117188 22.1875 -3.015625 C 21.425781 -2.273438 20.257812 -1.6875 18.6875 -1.25 C 17.113281 -0.820312 15.726562 -0.59375 14.53125 -0.5625 C 10.757812 -0.457031 7.804688 -1.722656 5.671875 -4.359375 C 3.535156 -7.003906 2.40625 -10.78125 2.28125 -15.6875 C 2.1875 -19.039062 2.675781 -21.90625 3.75 -24.28125 C 4.820312 -26.664062 6.285156 -28.507812 8.140625 -29.8125 C 9.992188 -31.125 12.03125 -31.804688 14.25 -31.859375 C 15.976562 -31.910156 17.390625 -31.664062 18.484375 -31.125 C 19.578125 -30.582031 20.457031 -30.144531 21.125 -29.8125 C 21 -34.300781 20.472656 -37.6875 19.546875 -39.96875 C 18.628906 -42.25 17.125 -43.359375 15.03125 -43.296875 C 13.46875 -43.253906 12.359375 -42.519531 11.703125 -41.09375 C 11.054688 -39.675781 10.753906 -38.191406 10.796875 -36.640625 C 10.816406 -35.554688 10.429688 -34.75 9.640625 -34.21875 C 8.847656 -33.695312 7.851562 -33.421875 6.65625 -33.390625 C 3.726562 -33.304688 2.234375 -34.457031 2.171875 -36.84375 C 2.066406 -40.726562 3.070312 -43.957031 5.1875 -46.53125 C 7.300781 -49.101562 10.515625 -50.445312 14.828125 -50.5625 C 18.773438 -50.664062 21.800781 -49.816406 23.90625 -48.015625 C 26.019531 -46.222656 27.46875 -43.523438 28.25 -39.921875 C 29.03125 -36.316406 29.375 -31.789062 29.28125 -26.34375 C 29.457031 -19.476562 29.679688 -14.296875 29.953125 -10.796875 C 30.222656 -7.304688 30.425781 -5.414062 30.5625 -5.125 C 30.675781 -4.820312 30.738281 -4.535156 30.75 -4.265625 C 30.757812 -3.992188 30.765625 -3.769531 30.765625 -3.59375 C 30.785156 -2.757812 30.472656 -2.078125 29.828125 -1.546875 C 29.191406 -1.023438 28.304688 -0.75 27.171875 -0.71875 Z M 15.859375 -8.140625 C 17.648438 -8.191406 18.820312 -8.988281 19.375 -10.53125 C 19.9375 -12.070312 20.1875 -14.128906 20.125 -16.703125 C 20.0625 -18.972656 19.722656 -20.875 19.109375 -22.40625 C 18.503906 -23.9375 17.363281 -24.679688 15.6875 -24.640625 C 13.65625 -24.578125 12.195312 -23.757812 11.3125 -22.1875 C 10.425781 -20.625 10.015625 -18.644531 10.078125 -16.25 C 10.140625 -13.851562 10.65625 -11.890625 11.625 -10.359375 C 12.59375 -8.828125 14.003906 -8.085938 15.859375 -8.140625 Z M 15.859375 -8.140625 "></path></g></g></g></g></g></g></g></svg>